0
SECTION
2
HEADER
9
$ACADVER
1
AC1009
9
$DWGCODEPAGE
3
ANSI_932
9
$INSUNITS
70
4
9
$MEASUREMENT
70
1
0
ENDSEC
0
SECTION
2
TABLES
0
TABLE
2
LTYPE
70
1
0
LTYPE
2
CONTINUOUS
70
0
3
Solid line
72
65
73
0
40
0.0
0
ENDTAB
0
TABLE
2
LAYER
70
8
0
LAYER
2
OUTLINE
70
0
62
7
6
CONTINUOUS
0
LAYER
2
OUTLINE_BLUE
70
0
62
5
6
CONTINUOUS
0
LAYER
2
EDGE
70
0
62
8
6
CONTINUOUS
0
LAYER
2
EXIST
70
0
62
9
6
CONTINUOUS
0
LAYER
2
DIM
70
0
62
1
6
CONTINUOUS
0
LAYER
2
TEXT
70
0
62
2
6
CONTINUOUS
0
LAYER
2
SYMBOL
70
0
62
3
6
CONTINUOUS
0
LAYER
2
HATCH
70
0
62
4
6
CONTINUOUS
0
ENDTAB
0
TABLE
2
STYLE
70
1
0
STYLE
2
STANDARD
70
0
40
0.0
41
1.0
50
0.0
71
0
42
200.0
3
txt
4

0
ENDTAB
0
ENDSEC
0
SECTION
2
BLOCKS
0
ENDSEC
0
SECTION
2
ENTITIES
0
LINE
8
EDGE
10
0.000000
20
0.000000
30
0.0
11
13200.000000
21
0.000000
31
0.0
0
TEXT
8
TEXT
10
0.000000
20
-320.000000
30
0.0
40
200.0
1
SL(A)
50
0.0
72
1
11
0.000000
21
-320.000000
31
0.0
0
TEXT
8
TEXT
10
13200.000000
20
-320.000000
30
0.0
40
200.0
1
SL(B)
50
0.0
72
1
11
13200.000000
21
-320.000000
31
0.0
0
TEXT
8
TEXT
10
6600.000000
20
-320.000000
30
0.0
40
140.0
1
A.BÅiâèêŒ/ï‡é‘ã´äEÅj
50
0.0
72
1
11
6600.000000
21
-320.000000
31
0.0
0
TEXT
8
TEXT
10
450.000000
20
6750.000000
30
0.0
40
200.0
1
+Y: ï‡ìπë§
50
0.0
72
1
11
450.000000
21
6750.000000
31
0.0
0
TEXT
8
TEXT
10
6600.000000
20
7600.000000
30
0.0
40
260.0
1
10tópèÊì¸ê}
50
0.0
72
1
11
6600.000000
21
7600.000000
31
0.0
0
POLYLINE
8
OUTLINE_BLUE
66
1
70
1
0
VERTEX
8
OUTLINE_BLUE
10
3000.000000
20
5080.000000
30
0.0
0
VERTEX
8
OUTLINE_BLUE
10
10200.000000
20
5080.000000
30
0.0
0
VERTEX
8
OUTLINE_BLUE
10
10200.000000
20
3400.000000
30
0.0
0
VERTEX
8
OUTLINE_BLUE
10
3000.000000
20
3400.000000
30
0.0
0
SEQEND
8
OUTLINE_BLUE
0
POLYLINE
8
OUTLINE
66
1
70
1
0
VERTEX
8
OUTLINE
10
0.000000
20
3400.000000
30
0.0
0
VERTEX
8
OUTLINE
10
13200.000000
20
3400.000000
30
0.0
0
VERTEX
8
OUTLINE
10
13200.000000
20
2900.000000
30
0.0
0
VERTEX
8
OUTLINE
10
0.000000
20
2900.000000
30
0.0
0
SEQEND
8
OUTLINE
0
POLYLINE
8
OUTLINE
66
1
70
1
0
VERTEX
8
OUTLINE
10
0.000000
20
5430.000000
30
0.0
0
VERTEX
8
OUTLINE
10
13200.000000
20
5430.000000
30
0.0
0
VERTEX
8
OUTLINE
10
13200.000000
20
5080.000000
30
0.0
0
VERTEX
8
OUTLINE
10
0.000000
20
5080.000000
30
0.0
0
SEQEND
8
OUTLINE
0
POLYLINE
8
OUTLINE
66
1
70
1
0
VERTEX
8
OUTLINE
10
0.000000
20
3580.000000
30
0.0
0
VERTEX
8
OUTLINE
10
3000.000000
20
3580.000000
30
0.0
0
VERTEX
8
OUTLINE
10
3000.000000
20
3400.000000
30
0.0
0
VERTEX
8
OUTLINE
10
0.000000
20
3400.000000
30
0.0
0
SEQEND
8
OUTLINE
0
LINE
8
EXIST
10
0.000000
20
3580.000000
30
0.0
11
0.000000
21
3400.000000
31
0.0
0
LINE
8
EXIST
10
600.000000
20
3580.000000
30
0.0
11
600.000000
21
3400.000000
31
0.0
0
LINE
8
EXIST
10
1200.000000
20
3580.000000
30
0.0
11
1200.000000
21
3400.000000
31
0.0
0
LINE
8
EXIST
10
1800.000000
20
3580.000000
30
0.0
11
1800.000000
21
3400.000000
31
0.0
0
LINE
8
EXIST
10
2400.000000
20
3580.000000
30
0.0
11
2400.000000
21
3400.000000
31
0.0
0
LINE
8
EXIST
10
3000.000000
20
3580.000000
30
0.0
11
3000.000000
21
3400.000000
31
0.0
0
POLYLINE
8
OUTLINE
66
1
70
1
0
VERTEX
8
OUTLINE
10
10200.000000
20
3580.000000
30
0.0
0
VERTEX
8
OUTLINE
10
13200.000000
20
3580.000000
30
0.0
0
VERTEX
8
OUTLINE
10
13200.000000
20
3400.000000
30
0.0
0
VERTEX
8
OUTLINE
10
10200.000000
20
3400.000000
30
0.0
0
SEQEND
8
OUTLINE
0
POLYLINE
8
OUTLINE
66
1
70
1
0
VERTEX
8
OUTLINE
10
10200.000000
20
-2000.000000
30
0.0
0
VERTEX
8
OUTLINE
10
13200.000000
20
-2000.000000
30
0.0
0
VERTEX
8
OUTLINE
10
13200.000000
20
-2150.000000
30
0.0
0
VERTEX
8
OUTLINE
10
10200.000000
20
-2150.000000
30
0.0
0
SEQEND
8
OUTLINE
0
LINE
8
EXIST
10
10200.000000
20
-2000.000000
30
0.0
11
10200.000000
21
-2150.000000
31
0.0
0
LINE
8
EXIST
10
10800.000000
20
-2000.000000
30
0.0
11
10800.000000
21
-2150.000000
31
0.0
0
LINE
8
EXIST
10
11400.000000
20
-2000.000000
30
0.0
11
11400.000000
21
-2150.000000
31
0.0
0
LINE
8
EXIST
10
12000.000000
20
-2000.000000
30
0.0
11
12000.000000
21
-2150.000000
31
0.0
0
LINE
8
EXIST
10
12600.000000
20
-2000.000000
30
0.0
11
12600.000000
21
-2150.000000
31
0.0
0
LINE
8
EXIST
10
13200.000000
20
-2000.000000
30
0.0
11
13200.000000
21
-2150.000000
31
0.0
0
POLYLINE
8
OUTLINE
66
1
70
1
0
VERTEX
8
OUTLINE
10
9600.000000
20
3400.000000
30
0.0
0
VERTEX
8
OUTLINE
10
10200.000000
20
3400.000000
30
0.0
0
VERTEX
8
OUTLINE
10
10200.000000
20
2900.000000
30
0.0
0
VERTEX
8
OUTLINE
10
9600.000000
20
2900.000000
30
0.0
0
SEQEND
8
OUTLINE
0
POLYLINE
8
OUTLINE
66
1
70
1
0
VERTEX
8
OUTLINE
10
0.000000
20
5080.000000
30
0.0
0
VERTEX
8
OUTLINE
10
3000.000000
20
5080.000000
30
0.0
0
VERTEX
8
OUTLINE
10
3000.000000
20
3580.000000
30
0.0
0
VERTEX
8
OUTLINE
10
0.000000
20
3580.000000
30
0.0
0
SEQEND
8
OUTLINE
0
POLYLINE
8
OUTLINE
66
1
70
1
0
VERTEX
8
OUTLINE
10
10200.000000
20
5080.000000
30
0.0
0
VERTEX
8
OUTLINE
10
13200.000000
20
5080.000000
30
0.0
0
VERTEX
8
OUTLINE
10
13200.000000
20
3580.000000
30
0.0
0
VERTEX
8
OUTLINE
10
10200.000000
20
3580.000000
30
0.0
0
SEQEND
8
OUTLINE
0
LINE
8
EXIST
10
0.000000
20
-2150.000000
30
0.0
11
10200.000000
21
-2150.000000
31
0.0
0
TEXT
8
TEXT
10
5100.000000
20
-1890.000000
30
0.0
40
140.0
1
âèêŒ (ê¸)
50
0.0
72
1
11
5100.000000
21
-1890.000000
31
0.0
0
TEXT
8
TEXT
10
6600.000000
20
4240.000000
30
0.0
40
200.0
1
èÊÇËì¸ÇÍÉAÉXÉtÉ@ÉãÉg = 12.10 m2
50
0.0
72
1
11
6600.000000
21
4240.000000
31
0.0
0
TEXT
8
TEXT
10
6600.000000
20
3150.000000
30
0.0
40
200.0
1
äXãîî≈ = 6.60 m2
50
0.0
72
1
11
6600.000000
21
3150.000000
31
0.0
0
TEXT
8
TEXT
10
6600.000000
20
5255.000000
30
0.0
40
200.0
1
Lå^ = 4.62 m2
50
0.0
72
1
11
6600.000000
21
5255.000000
31
0.0
0
TEXT
8
TEXT
10
1500.000000
20
3490.000000
30
0.0
40
200.0
1
âèêŒ = 0.54 m2
50
0.0
72
1
11
1500.000000
21
3490.000000
31
0.0
0
TEXT
8
TEXT
10
11700.000000
20
3490.000000
30
0.0
40
200.0
1
âèêŒ = 0.54 m2
50
0.0
72
1
11
11700.000000
21
3490.000000
31
0.0
0
TEXT
8
TEXT
10
11700.000000
20
-2075.000000
30
0.0
40
200.0
1
âèêŒ = 0.45 m2
50
0.0
72
1
11
11700.000000
21
-2075.000000
31
0.0
0
TEXT
8
TEXT
10
9900.000000
20
3150.000000
30
0.0
40
200.0
1
èWêÖñë = 0.30 m2
50
0.0
72
1
11
9900.000000
21
3150.000000
31
0.0
0
TEXT
8
TEXT
10
1500.000000
20
4330.000000
30
0.0
40
200.0
1
AS = 4.50 m2
50
0.0
72
1
11
1500.000000
21
4330.000000
31
0.0
0
TEXT
8
TEXT
10
11700.000000
20
4330.000000
30
0.0
40
200.0
1
AS = 4.50 m2
50
0.0
72
1
11
11700.000000
21
4330.000000
31
0.0
0
TEXT
8
TEXT
10
0.000000
20
-620.000000
30
0.0
40
160.0
1
A
50
0.0
72
1
11
0.000000
21
-620.000000
31
0.0
0
TEXT
8
TEXT
10
13200.000000
20
-620.000000
30
0.0
40
160.0
1
B
50
0.0
72
1
11
13200.000000
21
-620.000000
31
0.0
0
LINE
8
DIM
10
0.000000
20
0.000000
30
0.0
11
0.000000
21
-1050.000000
31
0.0
0
LINE
8
DIM
10
13200.000000
20
0.000000
30
0.0
11
13200.000000
21
-1050.000000
31
0.0
0
LINE
8
DIM
10
0.000000
20
-900.000000
30
0.0
11
13200.000000
21
-900.000000
31
0.0
0
LINE
8
DIM
10
-42.426407
20
-942.426407
30
0.0
11
42.426407
21
-857.573593
31
0.0
0
LINE
8
DIM
10
13157.573593
20
-942.426407
30
0.0
11
13242.426407
21
-857.573593
31
0.0
0
TEXT
8
TEXT
10
6600.000000
20
-950.000000
30
0.0
40
200.0
1
13200
50
0.0
72
1
11
6600.000000
21
-950.000000
31
0.0
0
LINE
8
DIM
10
3000.000000
20
5080.000000
30
0.0
11
3000.000000
21
5650.000000
31
0.0
0
LINE
8
DIM
10
10200.000000
20
5080.000000
30
0.0
11
10200.000000
21
5650.000000
31
0.0
0
LINE
8
DIM
10
3000.000000
20
5500.000000
30
0.0
11
10200.000000
21
5500.000000
31
0.0
0
LINE
8
DIM
10
2957.573593
20
5457.573593
30
0.0
11
3042.426407
21
5542.426407
31
0.0
0
LINE
8
DIM
10
10157.573593
20
5457.573593
30
0.0
11
10242.426407
21
5542.426407
31
0.0
0
TEXT
8
TEXT
10
6600.000000
20
5550.000000
30
0.0
40
160.0
1
7200
50
0.0
72
1
11
6600.000000
21
5550.000000
31
0.0
0
LINE
8
DIM
10
10200.000000
20
3400.000000
30
0.0
11
10770.000000
21
3400.000000
31
0.0
0
LINE
8
DIM
10
10200.000000
20
5080.000000
30
0.0
11
10770.000000
21
5080.000000
31
0.0
0
LINE
8
DIM
10
10620.000000
20
3400.000000
30
0.0
11
10620.000000
21
5080.000000
31
0.0
0
LINE
8
DIM
10
10662.426407
20
3357.573593
30
0.0
11
10577.573593
21
3442.426407
31
0.0
0
LINE
8
DIM
10
10662.426407
20
5037.573593
30
0.0
11
10577.573593
21
5122.426407
31
0.0
0
TEXT
8
TEXT
10
10670.000000
20
4240.000000
30
0.0
40
160.0
1
1680
50
90.0
72
1
11
10670.000000
21
4240.000000
31
0.0
0
LINE
8
DIM
10
13200.000000
20
2900.000000
30
0.0
11
14090.000000
21
2900.000000
31
0.0
0
LINE
8
DIM
10
13200.000000
20
3400.000000
30
0.0
11
14090.000000
21
3400.000000
31
0.0
0
LINE
8
DIM
10
13940.000000
20
2900.000000
30
0.0
11
13940.000000
21
3400.000000
31
0.0
0
LINE
8
DIM
10
13982.426407
20
2857.573593
30
0.0
11
13897.573593
21
2942.426407
31
0.0
0
LINE
8
DIM
10
13982.426407
20
3357.573593
30
0.0
11
13897.573593
21
3442.426407
31
0.0
0
TEXT
8
TEXT
10
13990.000000
20
3150.000000
30
0.0
40
140.0
1
500
50
90.0
72
1
11
13990.000000
21
3150.000000
31
0.0
0
LINE
8
DIM
10
0.000000
20
3580.000000
30
0.0
11
0.000000
21
4030.000000
31
0.0
0
LINE
8
DIM
10
3000.000000
20
3580.000000
30
0.0
11
3000.000000
21
4030.000000
31
0.0
0
LINE
8
DIM
10
0.000000
20
3880.000000
30
0.0
11
3000.000000
21
3880.000000
31
0.0
0
LINE
8
DIM
10
-42.426407
20
3837.573593
30
0.0
11
42.426407
21
3922.426407
31
0.0
0
LINE
8
DIM
10
2957.573593
20
3837.573593
30
0.0
11
3042.426407
21
3922.426407
31
0.0
0
TEXT
8
TEXT
10
1500.000000
20
3930.000000
30
0.0
40
140.0
1
3000
50
0.0
72
1
11
1500.000000
21
3930.000000
31
0.0
0
LINE
8
SYMBOL
10
11200.000000
20
7050.000000
30
0.0
11
12100.000000
21
7050.000000
31
0.0
0
LINE
8
SYMBOL
10
12100.000000
20
7050.000000
30
0.0
11
11920.000000
21
7140.000000
31
0.0
0
LINE
8
SYMBOL
10
12100.000000
20
7050.000000
30
0.0
11
11920.000000
21
6960.000000
31
0.0
0
TEXT
8
SYMBOL
10
12270.000000
20
7050.000000
30
0.0
40
180.0
1
ñk
50
0.0
72
1
11
12270.000000
21
7050.000000
31
0.0
0
ENDSEC
0
EOF
