0
SECTION
2
HEADER
9
$ACADVER
1
AC1009
9
$INSUNITS
70
4
9
$MEASUREMENT
70
1
0
ENDSEC
0
SECTION
2
TABLES
0
TABLE
2
LTYPE
70
1
0
LTYPE
2
CONTINUOUS
70
0
3
Solid line
72
65
73
0
40
0.0
0
ENDTAB
0
TABLE
2
LAYER
70
7
0
LAYER
2
OUTLINE
70
0
62
7
6
CONTINUOUS
0
LAYER
2
EDGE
70
0
62
8
6
CONTINUOUS
0
LAYER
2
EXIST
70
0
62
9
6
CONTINUOUS
0
LAYER
2
DIM
70
0
62
1
6
CONTINUOUS
0
LAYER
2
TEXT
70
0
62
2
6
CONTINUOUS
0
LAYER
2
SYMBOL
70
0
62
3
6
CONTINUOUS
0
LAYER
2
HATCH
70
0
62
4
6
CONTINUOUS
0
ENDTAB
0
TABLE
2
STYLE
70
1
0
STYLE
2
STANDARD
70
0
40
0.0
41
1.0
50
0.0
71
0
42
200.0
3
txt
4

0
ENDTAB
0
ENDSEC
0
SECTION
2
BLOCKS
0
ENDSEC
0
SECTION
2
ENTITIES
0
LINE
8
EDGE
10
0.000000
20
0.000000
30
0.0
11
12060.000000
21
0.000000
31
0.0
0
LINE
8
EDGE
10
3000.000000
20
0.000000
30
0.0
11
9060.000000
21
0.000000
31
0.0
0
POLYLINE
8
OUTLINE
66
1
70
1
0
VERTEX
8
OUTLINE
10
3000.000000
20
1800.000000
30
0.0
0
VERTEX
8
OUTLINE
10
9060.000000
20
1800.000000
30
0.0
0
VERTEX
8
OUTLINE
10
9060.000000
20
650.000000
30
0.0
0
VERTEX
8
OUTLINE
10
3000.000000
20
650.000000
30
0.0
0
SEQEND
8
OUTLINE
0
POLYLINE
8
OUTLINE
66
1
70
1
0
VERTEX
8
OUTLINE
10
3000.000000
20
650.000000
30
0.0
0
VERTEX
8
OUTLINE
10
9060.000000
20
650.000000
30
0.0
0
VERTEX
8
OUTLINE
10
9060.000000
20
500.000000
30
0.0
0
VERTEX
8
OUTLINE
10
3000.000000
20
500.000000
30
0.0
0
SEQEND
8
OUTLINE
0
POLYLINE
8
EXIST
66
1
70
1
0
VERTEX
8
EXIST
10
3000.000000
20
612.500000
30
0.0
0
VERTEX
8
EXIST
10
9060.000000
20
612.500000
30
0.0
0
VERTEX
8
EXIST
10
9060.000000
20
537.500000
30
0.0
0
VERTEX
8
EXIST
10
3000.000000
20
537.500000
30
0.0
0
SEQEND
8
EXIST
0
LINE
8
DIM
10
3000.000000
20
0.000000
30
0.0
11
3000.000000
21
-550.000000
31
0.0
0
LINE
8
DIM
10
9060.000000
20
0.000000
30
0.0
11
9060.000000
21
-550.000000
31
0.0
0
LINE
8
DIM
10
3000.000000
20
-400.000000
30
0.0
11
9060.000000
21
-400.000000
31
0.0
0
LINE
8
DIM
10
2957.573593
20
-442.426407
30
0.0
11
3042.426407
21
-357.573593
31
0.0
0
LINE
8
DIM
10
9017.573593
20
-442.426407
30
0.0
11
9102.426407
21
-357.573593
31
0.0
0
TEXT
8
TEXT
10
6030.000000
20
-350.000000
30
0.0
40
200.0
1
6060
50
0.0
72
1
11
6030.000000
21
-350.000000
31
0.0
0
LINE
8
DIM
10
3000.000000
20
1800.000000
30
0.0
11
3000.000000
21
2250.000000
31
0.0
0
LINE
8
DIM
10
9060.000000
20
1800.000000
30
0.0
11
9060.000000
21
2250.000000
31
0.0
0
LINE
8
DIM
10
3000.000000
20
2100.000000
30
0.0
11
9060.000000
21
2100.000000
31
0.0
0
LINE
8
DIM
10
2957.573593
20
2057.573593
30
0.0
11
3042.426407
21
2142.426407
31
0.0
0
LINE
8
DIM
10
9017.573593
20
2057.573593
30
0.0
11
9102.426407
21
2142.426407
31
0.0
0
TEXT
8
TEXT
10
6030.000000
20
2150.000000
30
0.0
40
200.0
1
6060
50
0.0
72
1
11
6030.000000
21
2150.000000
31
0.0
0
LINE
8
DIM
10
9060.000000
20
1800.000000
30
0.0
11
9510.000000
21
1800.000000
31
0.0
0
LINE
8
DIM
10
9060.000000
20
650.000000
30
0.0
11
9510.000000
21
650.000000
31
0.0
0
LINE
8
DIM
10
9360.000000
20
1800.000000
30
0.0
11
9360.000000
21
650.000000
31
0.0
0
LINE
8
DIM
10
9402.426407
20
1757.573593
30
0.0
11
9317.573593
21
1842.426407
31
0.0
0
LINE
8
DIM
10
9402.426407
20
607.573593
30
0.0
11
9317.573593
21
692.426407
31
0.0
0
TEXT
8
TEXT
10
9410.000000
20
1225.000000
30
0.0
40
200.0
1
1150
50
90.0
72
1
11
9410.000000
21
1225.000000
31
0.0
0
LINE
8
DIM
10
9060.000000
20
650.000000
30
0.0
11
9810.000000
21
650.000000
31
0.0
0
LINE
8
DIM
10
9060.000000
20
500.000000
30
0.0
11
9810.000000
21
500.000000
31
0.0
0
LINE
8
DIM
10
9660.000000
20
650.000000
30
0.0
11
9660.000000
21
500.000000
31
0.0
0
LINE
8
DIM
10
9702.426407
20
607.573593
30
0.0
11
9617.573593
21
692.426407
31
0.0
0
LINE
8
DIM
10
9702.426407
20
457.573593
30
0.0
11
9617.573593
21
542.426407
31
0.0
0
TEXT
8
TEXT
10
9710.000000
20
575.000000
30
0.0
40
200.0
1
150
50
90.0
72
1
11
9710.000000
21
575.000000
31
0.0
0
LINE
8
DIM
10
3000.000000
20
0.000000
30
0.0
11
2550.000000
21
0.000000
31
0.0
0
LINE
8
DIM
10
3000.000000
20
500.000000
30
0.0
11
2550.000000
21
500.000000
31
0.0
0
LINE
8
DIM
10
2700.000000
20
0.000000
30
0.0
11
2700.000000
21
500.000000
31
0.0
0
LINE
8
DIM
10
2742.426407
20
-42.426407
30
0.0
11
2657.573593
21
42.426407
31
0.0
0
LINE
8
DIM
10
2742.426407
20
457.573593
30
0.0
11
2657.573593
21
542.426407
31
0.0
0
TEXT
8
TEXT
10
2650.000000
20
250.000000
30
0.0
40
200.0
1
500
50
90.0
72
1
11
2650.000000
21
250.000000
31
0.0
0
TEXT
8
TEXT
10
6030.000000
20
1225.000000
30
0.0
40
200.0
1
舗装 = 6.97 m2
50
0.0
72
1
11
6030.000000
21
1225.000000
31
0.0
0
TEXT
8
TEXT
10
6030.000000
20
575.000000
30
0.0
40
100.0
1
縁石復旧 = 0.91 m2
50
0.0
72
1
11
6030.000000
21
575.000000
31
0.0
0
TEXT
8
TEXT
10
0.000000
20
-250.000000
30
0.0
40
200.0
1
A
50
0.0
72
1
11
0.000000
21
-250.000000
31
0.0
0
TEXT
8
TEXT
10
12060.000000
20
-250.000000
30
0.0
40
200.0
1
B
50
0.0
72
1
11
12060.000000
21
-250.000000
31
0.0
0
TEXT
8
TEXT
10
6030.000000
20
2500.000000
30
0.0
40
240.0
1
歩道アスファルト舗装
50
0.0
72
1
11
6030.000000
21
2500.000000
31
0.0
0
LINE
8
SYMBOL
10
11200.000000
20
2000.000000
30
0.0
11
11200.000000
21
2400.000000
31
0.0
0
LINE
8
SYMBOL
10
11200.000000
20
2400.000000
30
0.0
11
11120.000000
21
2250.000000
31
0.0
0
LINE
8
SYMBOL
10
11200.000000
20
2400.000000
30
0.0
11
11280.000000
21
2250.000000
31
0.0
0
TEXT
8
SYMBOL
10
11200.000000
20
2520.000000
30
0.0
40
200.0
1
N
50
0.0
72
1
11
11200.000000
21
2520.000000
31
0.0
0
ENDSEC
0
EOF