0
SECTION
2
HEADER
9
$ACADVER
1
AC1009
9
$INSUNITS
70
4
9
$MEASUREMENT
70
1
0
ENDSEC
0
SECTION
2
TABLES
0
TABLE
2
LTYPE
70
1
0
LTYPE
2
CONTINUOUS
70
0
3
Solid line
72
65
73
0
40
0.0
0
ENDTAB
0
TABLE
2
LAYER
70
7
0
LAYER
2
OUTLINE
70
0
62
7
6
CONTINUOUS
0
LAYER
2
EDGE
70
0
62
8
6
CONTINUOUS
0
LAYER
2
EXIST
70
0
62
9
6
CONTINUOUS
0
LAYER
2
DIM
70
0
62
1
6
CONTINUOUS
0
LAYER
2
TEXT
70
0
62
2
6
CONTINUOUS
0
LAYER
2
SYMBOL
70
0
62
3
6
CONTINUOUS
0
LAYER
2
HATCH
70
0
62
4
6
CONTINUOUS
0
ENDTAB
0
TABLE
2
STYLE
70
1
0
STYLE
2
STANDARD
70
0
40
0.0
41
1.0
50
0.0
71
0
42
200.0
3
txt
4

0
ENDTAB
0
ENDSEC
0
SECTION
2
BLOCKS
0
ENDSEC
0
SECTION
2
ENTITIES
0
LINE
8
EDGE
10
0.000000
20
0.000000
30
0.0
11
13200.000000
21
0.000000
31
0.0
0
LINE
8
EDGE
10
-100.000000
20
-100.000000
30
0.0
11
100.000000
21
100.000000
31
0.0
0
LINE
8
EDGE
10
-100.000000
20
100.000000
30
0.0
11
100.000000
21
-100.000000
31
0.0
0
TEXT
8
TEXT
10
0.000000
20
-500.000000
30
0.0
40
200.0
1
A
50
0.0
72
1
11
0.000000
21
-500.000000
31
0.0
0
LINE
8
EDGE
10
13100.000000
20
-100.000000
30
0.0
11
13300.000000
21
100.000000
31
0.0
0
LINE
8
EDGE
10
13100.000000
20
100.000000
30
0.0
11
13300.000000
21
-100.000000
31
0.0
0
TEXT
8
TEXT
10
13200.000000
20
-500.000000
30
0.0
40
200.0
1
B
50
0.0
72
1
11
13200.000000
21
-500.000000
31
0.0
0
TEXT
8
TEXT
10
6600.000000
20
200.000000
30
0.0
40
150.0
1
CL (Y=0)
50
0.0
72
1
11
6600.000000
21
200.000000
31
0.0
0
POLYLINE
8
OUTLINE
62
5
66
1
70
1
0
VERTEX
8
OUTLINE
10
3000.000000
20
5080.000000
30
0.0
0
VERTEX
8
OUTLINE
10
10200.000000
20
5080.000000
30
0.0
0
VERTEX
8
OUTLINE
10
10200.000000
20
3400.000000
30
0.0
0
VERTEX
8
OUTLINE
10
3000.000000
20
3400.000000
30
0.0
0
SEQEND
8
OUTLINE
0
POLYLINE
8
OUTLINE
66
1
70
1
0
VERTEX
8
OUTLINE
10
0.000000
20
3400.000000
30
0.0
0
VERTEX
8
OUTLINE
10
13200.000000
20
3400.000000
30
0.0
0
VERTEX
8
OUTLINE
10
13200.000000
20
2900.000000
30
0.0
0
VERTEX
8
OUTLINE
10
0.000000
20
2900.000000
30
0.0
0
SEQEND
8
OUTLINE
0
POLYLINE
8
OUTLINE
66
1
70
1
0
VERTEX
8
OUTLINE
10
0.000000
20
5430.000000
30
0.0
0
VERTEX
8
OUTLINE
10
13200.000000
20
5430.000000
30
0.0
0
VERTEX
8
OUTLINE
10
13200.000000
20
5080.000000
30
0.0
0
VERTEX
8
OUTLINE
10
0.000000
20
5080.000000
30
0.0
0
SEQEND
8
OUTLINE
0
POLYLINE
8
OUTLINE
66
1
70
1
0
VERTEX
8
OUTLINE
10
0.000000
20
3580.000000
30
0.0
0
VERTEX
8
OUTLINE
10
3000.000000
20
3580.000000
30
0.0
0
VERTEX
8
OUTLINE
10
3000.000000
20
3400.000000
30
0.0
0
VERTEX
8
OUTLINE
10
0.000000
20
3400.000000
30
0.0
0
SEQEND
8
OUTLINE
0
POLYLINE
8
OUTLINE
66
1
70
1
0
VERTEX
8
OUTLINE
10
10200.000000
20
3580.000000
30
0.0
0
VERTEX
8
OUTLINE
10
13200.000000
20
3580.000000
30
0.0
0
VERTEX
8
OUTLINE
10
13200.000000
20
3400.000000
30
0.0
0
VERTEX
8
OUTLINE
10
10200.000000
20
3400.000000
30
0.0
0
SEQEND
8
OUTLINE
0
POLYLINE
8
OUTLINE
66
1
70
1
0
VERTEX
8
OUTLINE
10
0.000000
20
-1925.000000
30
0.0
0
VERTEX
8
OUTLINE
10
3000.000000
20
-1925.000000
30
0.0
0
VERTEX
8
OUTLINE
10
3000.000000
20
-2075.000000
30
0.0
0
VERTEX
8
OUTLINE
10
0.000000
20
-2075.000000
30
0.0
0
SEQEND
8
OUTLINE
0
POLYLINE
8
OUTLINE
66
1
70
1
0
VERTEX
8
OUTLINE
10
10200.000000
20
-1925.000000
30
0.0
0
VERTEX
8
OUTLINE
10
13200.000000
20
-1925.000000
30
0.0
0
VERTEX
8
OUTLINE
10
13200.000000
20
-2075.000000
30
0.0
0
VERTEX
8
OUTLINE
10
10200.000000
20
-2075.000000
30
0.0
0
SEQEND
8
OUTLINE
0
LINE
8
EXIST
10
0.000000
20
-2075.000000
30
0.0
11
13200.000000
21
-2075.000000
31
0.0
0
LINE
8
DIM
10
3000.000000
20
5080.000000
30
0.0
11
3000.000000
21
5880.000000
31
0.0
0
LINE
8
DIM
10
10200.000000
20
5080.000000
30
0.0
11
10200.000000
21
5880.000000
31
0.0
0
LINE
8
DIM
10
3000.000000
20
5730.000000
30
0.0
11
10200.000000
21
5730.000000
31
0.0
0
LINE
8
DIM
10
2957.573580
20
5687.573580
30
0.0
11
3042.426420
21
5772.426420
31
0.0
0
LINE
8
DIM
10
10157.573580
20
5687.573580
30
0.0
11
10242.426420
21
5772.426420
31
0.0
0
TEXT
8
TEXT
10
6600.000000
20
5780.000000
30
0.0
40
200.0
1
7200
50
0.0
72
1
11
6600.000000
21
5780.000000
31
0.0
0
LINE
8
DIM
10
0.000000
20
5430.000000
30
0.0
11
0.000000
21
6180.000000
31
0.0
0
LINE
8
DIM
10
13200.000000
20
5430.000000
30
0.0
11
13200.000000
21
6180.000000
31
0.0
0
LINE
8
DIM
10
0.000000
20
6030.000000
30
0.0
11
13200.000000
21
6030.000000
31
0.0
0
LINE
8
DIM
10
-42.426420
20
5987.573580
30
0.0
11
42.426420
21
6072.426420
31
0.0
0
LINE
8
DIM
10
13157.573580
20
5987.573580
30
0.0
11
13242.426420
21
6072.426420
31
0.0
0
TEXT
8
TEXT
10
6600.000000
20
6080.000000
30
0.0
40
200.0
1
13200
50
0.0
72
1
11
6600.000000
21
6080.000000
31
0.0
0
LINE
8
DIM
10
0.000000
20
2900.000000
30
0.0
11
0.000000
21
2450.000000
31
0.0
0
LINE
8
DIM
10
3000.000000
20
2900.000000
30
0.0
11
3000.000000
21
2450.000000
31
0.0
0
LINE
8
DIM
10
0.000000
20
2600.000000
30
0.0
11
3000.000000
21
2600.000000
31
0.0
0
LINE
8
DIM
10
-42.426420
20
2557.573580
30
0.0
11
42.426420
21
2642.426420
31
0.0
0
LINE
8
DIM
10
2957.573580
20
2557.573580
30
0.0
11
3042.426420
21
2642.426420
31
0.0
0
TEXT
8
TEXT
10
1500.000000
20
2650.000000
30
0.0
40
200.0
1
3000
50
0.0
72
1
11
1500.000000
21
2650.000000
31
0.0
0
LINE
8
DIM
10
3000.000000
20
2900.000000
30
0.0
11
3000.000000
21
2450.000000
31
0.0
0
LINE
8
DIM
10
10200.000000
20
2900.000000
30
0.0
11
10200.000000
21
2450.000000
31
0.0
0
LINE
8
DIM
10
3000.000000
20
2600.000000
30
0.0
11
10200.000000
21
2600.000000
31
0.0
0
LINE
8
DIM
10
2957.573580
20
2557.573580
30
0.0
11
3042.426420
21
2642.426420
31
0.0
0
LINE
8
DIM
10
10157.573580
20
2557.573580
30
0.0
11
10242.426420
21
2642.426420
31
0.0
0
TEXT
8
TEXT
10
6600.000000
20
2650.000000
30
0.0
40
200.0
1
7200
50
0.0
72
1
11
6600.000000
21
2650.000000
31
0.0
0
LINE
8
DIM
10
10200.000000
20
2900.000000
30
0.0
11
10200.000000
21
2450.000000
31
0.0
0
LINE
8
DIM
10
13200.000000
20
2900.000000
30
0.0
11
13200.000000
21
2450.000000
31
0.0
0
LINE
8
DIM
10
10200.000000
20
2600.000000
30
0.0
11
13200.000000
21
2600.000000
31
0.0
0
LINE
8
DIM
10
10157.573580
20
2557.573580
30
0.0
11
10242.426420
21
2642.426420
31
0.0
0
LINE
8
DIM
10
13157.573580
20
2557.573580
30
0.0
11
13242.426420
21
2642.426420
31
0.0
0
TEXT
8
TEXT
10
11700.000000
20
2650.000000
30
0.0
40
200.0
1
3000
50
0.0
72
1
11
11700.000000
21
2650.000000
31
0.0
0
LINE
8
DIM
10
0.000000
20
-2075.000000
30
0.0
11
0.000000
21
-2500.000000
31
0.0
0
LINE
8
DIM
10
3000.000000
20
-2075.000000
30
0.0
11
3000.000000
21
-2500.000000
31
0.0
0
LINE
8
DIM
10
0.000000
20
-2350.000000
30
0.0
11
3000.000000
21
-2350.000000
31
0.0
0
LINE
8
DIM
10
-42.426420
20
-2392.426420
30
0.0
11
42.426420
21
-2307.573580
31
0.0
0
LINE
8
DIM
10
2957.573580
20
-2392.426420
30
0.0
11
3042.426420
21
-2307.573580
31
0.0
0
TEXT
8
TEXT
10
1500.000000
20
-2300.000000
30
0.0
40
200.0
1
3000
50
0.0
72
1
11
1500.000000
21
-2300.000000
31
0.0
0
LINE
8
DIM
10
10200.000000
20
-2075.000000
30
0.0
11
10200.000000
21
-2500.000000
31
0.0
0
LINE
8
DIM
10
13200.000000
20
-2075.000000
30
0.0
11
13200.000000
21
-2500.000000
31
0.0
0
LINE
8
DIM
10
10200.000000
20
-2350.000000
30
0.0
11
13200.000000
21
-2350.000000
31
0.0
0
LINE
8
DIM
10
10157.573580
20
-2392.426420
30
0.0
11
10242.426420
21
-2307.573580
31
0.0
0
LINE
8
DIM
10
13157.573580
20
-2392.426420
30
0.0
11
13242.426420
21
-2307.573580
31
0.0
0
TEXT
8
TEXT
10
11700.000000
20
-2300.000000
30
0.0
40
200.0
1
3000
50
0.0
72
1
11
11700.000000
21
-2300.000000
31
0.0
0
LINE
8
DIM
10
10200.000000
20
3400.000000
30
0.0
11
13650.000000
21
3400.000000
31
0.0
0
LINE
8
DIM
10
10200.000000
20
5080.000000
30
0.0
11
13650.000000
21
5080.000000
31
0.0
0
LINE
8
DIM
10
13500.000000
20
3400.000000
30
0.0
11
13500.000000
21
5080.000000
31
0.0
0
LINE
8
DIM
10
13542.426420
20
3357.573580
30
0.0
11
13457.573580
21
3442.426420
31
0.0
0
LINE
8
DIM
10
13542.426420
20
5037.573580
30
0.0
11
13457.573580
21
5122.426420
31
0.0
0
TEXT
8
TEXT
10
13550.000000
20
4240.000000
30
0.0
40
200.0
1
1680
50
90.0
72
1
11
13550.000000
21
4240.000000
31
0.0
0
LINE
8
DIM
10
13200.000000
20
2900.000000
30
0.0
11
13950.000000
21
2900.000000
31
0.0
0
LINE
8
DIM
10
13200.000000
20
3400.000000
30
0.0
11
13950.000000
21
3400.000000
31
0.0
0
LINE
8
DIM
10
13800.000000
20
2900.000000
30
0.0
11
13800.000000
21
3400.000000
31
0.0
0
LINE
8
DIM
10
13842.426420
20
2857.573580
30
0.0
11
13757.573580
21
2942.426420
31
0.0
0
LINE
8
DIM
10
13842.426420
20
3357.573580
30
0.0
11
13757.573580
21
3442.426420
31
0.0
0
TEXT
8
TEXT
10
13850.000000
20
3150.000000
30
0.0
40
200.0
1
500
50
90.0
72
1
11
13850.000000
21
3150.000000
31
0.0
0
LINE
8
DIM
10
13200.000000
20
5080.000000
30
0.0
11
14250.000000
21
5080.000000
31
0.0
0
LINE
8
DIM
10
13200.000000
20
5430.000000
30
0.0
11
14250.000000
21
5430.000000
31
0.0
0
LINE
8
DIM
10
14100.000000
20
5080.000000
30
0.0
11
14100.000000
21
5430.000000
31
0.0
0
LINE
8
DIM
10
14142.426420
20
5037.573580
30
0.0
11
14057.573580
21
5122.426420
31
0.0
0
LINE
8
DIM
10
14142.426420
20
5387.573580
30
0.0
11
14057.573580
21
5472.426420
31
0.0
0
TEXT
8
TEXT
10
14150.000000
20
5255.000000
30
0.0
40
200.0
1
350
50
90.0
72
1
11
14150.000000
21
5255.000000
31
0.0
0
LINE
8
DIM
10
13200.000000
20
3400.000000
30
0.0
11
14550.000000
21
3400.000000
31
0.0
0
LINE
8
DIM
10
13200.000000
20
3580.000000
30
0.0
11
14550.000000
21
3580.000000
31
0.0
0
LINE
8
DIM
10
14400.000000
20
3400.000000
30
0.0
11
14400.000000
21
3580.000000
31
0.0
0
LINE
8
DIM
10
14442.426420
20
3357.573580
30
0.0
11
14357.573580
21
3442.426420
31
0.0
0
LINE
8
DIM
10
14442.426420
20
3537.573580
30
0.0
11
14357.573580
21
3622.426420
31
0.0
0
TEXT
8
TEXT
10
14450.000000
20
3490.000000
30
0.0
40
200.0
1
180
50
90.0
72
1
11
14450.000000
21
3490.000000
31
0.0
0
LINE
8
DIM
10
13200.000000
20
-2075.000000
30
0.0
11
14250.000000
21
-2075.000000
31
0.0
0
LINE
8
DIM
10
13200.000000
20
-1925.000000
30
0.0
11
14250.000000
21
-1925.000000
31
0.0
0
LINE
8
DIM
10
14100.000000
20
-2075.000000
30
0.0
11
14100.000000
21
-1925.000000
31
0.0
0
LINE
8
DIM
10
14142.426420
20
-2117.426420
30
0.0
11
14057.573580
21
-2032.573580
31
0.0
0
LINE
8
DIM
10
14142.426420
20
-1967.426420
30
0.0
11
14057.573580
21
-1882.573580
31
0.0
0
TEXT
8
TEXT
10
14150.000000
20
-2000.000000
30
0.0
40
200.0
1
150
50
90.0
72
1
11
14150.000000
21
-2000.000000
31
0.0
0
LINE
8
DIM
10
0.000000
20
0.000000
30
0.0
11
-750.000000
21
0.000000
31
0.0
0
LINE
8
DIM
10
0.000000
20
2900.000000
30
0.0
11
-750.000000
21
2900.000000
31
0.0
0
LINE
8
DIM
10
-600.000000
20
0.000000
30
0.0
11
-600.000000
21
2900.000000
31
0.0
0
LINE
8
DIM
10
-557.573580
20
-42.426420
30
0.0
11
-642.426420
21
42.426420
31
0.0
0
LINE
8
DIM
10
-557.573580
20
2857.573580
30
0.0
11
-642.426420
21
2942.426420
31
0.0
0
TEXT
8
TEXT
10
-550.000000
20
1450.000000
30
0.0
40
200.0
1
2900
50
90.0
72
1
11
-550.000000
21
1450.000000
31
0.0
0
LINE
8
DIM
10
0.000000
20
-2075.000000
30
0.0
11
-1050.000000
21
-2075.000000
31
0.0
0
LINE
8
DIM
10
0.000000
20
0.000000
30
0.0
11
-1050.000000
21
0.000000
31
0.0
0
LINE
8
DIM
10
-900.000000
20
-2075.000000
30
0.0
11
-900.000000
21
0.000000
31
0.0
0
LINE
8
DIM
10
-857.573580
20
-2117.426420
30
0.0
11
-942.426420
21
-2032.573580
31
0.0
0
LINE
8
DIM
10
-857.573580
20
-42.426420
30
0.0
11
-942.426420
21
42.426420
31
0.0
0
TEXT
8
TEXT
10
-850.000000
20
-1037.500000
30
0.0
40
200.0
1
2075
50
90.0
72
1
11
-850.000000
21
-1037.500000
31
0.0
0
TEXT
8
TEXT
10
6600.000000
20
4240.000000
30
0.0
40
200.0
1
10t用乗入舗装 = 12.10 ㎡
50
0.0
72
1
11
6600.000000
21
4240.000000
31
0.0
0
TEXT
8
TEXT
10
6600.000000
20
3150.000000
30
0.0
40
200.0
1
街渠版 = 6.60 ㎡
50
0.0
72
1
11
6600.000000
21
3150.000000
31
0.0
0
TEXT
8
TEXT
10
6600.000000
20
5255.000000
30
0.0
40
200.0
1
L型 = 4.62 ㎡
50
0.0
72
1
11
6600.000000
21
5255.000000
31
0.0
0
TEXT
8
TEXT
10
1500.000000
20
3490.000000
30
0.0
40
130.0
1
縁石 = 0.54 ㎡
50
0.0
72
1
11
1500.000000
21
3490.000000
31
0.0
0
TEXT
8
TEXT
10
11700.000000
20
3490.000000
30
0.0
40
130.0
1
縁石 = 0.54 ㎡
50
0.0
72
1
11
11700.000000
21
3490.000000
31
0.0
0
TEXT
8
TEXT
10
1500.000000
20
-2000.000000
30
0.0
40
100.0
1
縁石 = 0.45 ㎡
50
0.0
72
1
11
1500.000000
21
-2000.000000
31
0.0
0
TEXT
8
TEXT
10
11700.000000
20
-2000.000000
30
0.0
40
100.0
1
縁石 = 0.45 ㎡
50
0.0
72
1
11
11700.000000
21
-2000.000000
31
0.0
0
TEXT
8
TEXT
10
6600.000000
20
-2200.000000
30
0.0
40
150.0
1
AS (参考線)
50
0.0
72
1
11
6600.000000
21
-2200.000000
31
0.0
0
TEXT
8
TEXT
10
6600.000000
20
6500.000000
30
0.0
40
300.0
1
歩道乗入アスファルト舗装
50
0.0
72
1
11
6600.000000
21
6500.000000
31
0.0
0
LINE
8
SYMBOL
10
14800.000000
20
5500.000000
30
0.0
11
14800.000000
21
6300.000000
31
0.0
0
LINE
8
SYMBOL
10
14800.000000
20
6300.000000
30
0.0
11
14650.000000
21
6100.000000
31
0.0
0
LINE
8
SYMBOL
10
14800.000000
20
6300.000000
30
0.0
11
14950.000000
21
6100.000000
31
0.0
0
TEXT
8
SYMBOL
10
14800.000000
20
6550.000000
30
0.0
40
200.0
1
N
50
0.0
72
1
11
14800.000000
21
6550.000000
31
0.0
0
ENDSEC
0
EOF