  0
SECTION
  2
HEADER
  9
$ACADVER
  1
AC1009
  9
$INSBASE
 10
0
 20
0
 30
0
  9
$EXTMIN
 10
0
 20
0
  9
$EXTMAX
 10
841
 20
594
  9
$LIMMIN
 10
0
 20
0
  9
$LIMMAX
 10
841
 20
594
  9
$LTSCALE
 40
1
  0
ENDSEC
  0
SECTION
  2
TABLES
  0
TABLE
  2
VPORT
  5
    1
100
AcDbSymbolTable
 70
    1
  0
VPORT
  5
    2
100
AcDbSymbolTableRecord
100
AcDbViewportTableRecord
  2
*Active
 70
    0
 10
0
 20
0
 11
1
 21
1
 12
420.5
 22
297
 13
0
 23
0
 14
10
 24
10
 15
10
 25
10
 16
0
 26
0
 36
100
 17
0
 27
0
 37
0
 40
594
 41
1.5376
 42
50
 43
0
 44
0
 50
0
 51
0
 71
    0
 72
  100
 73
    1
 74
    3
 75
    0
 76
    0
 77
    0
 78
    0
  0
ENDTAB
  0
TABLE
  2
LTYPE
 70
     9
  0
LTYPE
  2
CONTINUOUS
 70
    64
  3
実線
 72
    65
 73
     0
 40
0.0
  0
LTYPE
  2
DASHED1
 70
    64
  3
--  --  --  --  --  --  --  --  
 72
    65
 73
     2
 40
2.5
 49
1.25
 49
-1.25
  0
LTYPE
  2
DASHED2
 70
    64
  3
----    ----    ----    ----    
 72
    65
 73
     2
 40
5.0
 49
2.5
 49
-2.5
  0
LTYPE
  2
DASHED3
 70
    64
  3
------  ------  ------  ------  
 72
    65
 73
     2
 40
5.0
 49
3.75
 49
-1.25
  0
LTYPE
  2
CENTER1
 70
    64
  3
----- - ----- - ----- - ----- - 
 72
    65
 73
     4
 40
10.0
 49
6.25
 49
-1.25
 49
1.25
 49
-1.25
  0
LTYPE
  2
CENTER2
 70
    64
  3
----------  --  ----------  --  
 72
    65
 73
     4
 40
20.0
 49
12.5
 49
-2.5
 49
2.5
 49
-2.5
  0
LTYPE
  2
PHANTOM1
 70
    64
  3
--- - - --- - - --- - - --- - - 
 72
    65
 73
     6
 40
10.0
 49
3.25
 49
-1.25
 49
1.25
 49
-1.25
 49
1.25
 49
-1.25
  0
LTYPE
  2
PHANTOM2
 70
    64
  3
--------  -  -  --------  -  -  
 72
    65
 73
     6
 40
20.0
 49
10.0
 49
-2.5
 49
1.25
 49
-2.5
 49
1.25
 49
-2.5
  0
LTYPE
  2
DOT
 70
    64
  3
-   -   -   -   -   -   -   -   
 72
    65
 73
     2
 40
2.5
 49
0.625
 49
-1.875
  0
LTYPE
  2
DUMMY
 70
    64
  3
ダミー
 72
    65
 73
     0
 40
0.0
  0
LTYPE
  2
RAND1
 70
    64
  3
ランダム線1
 72
    65
 73
     4
 40
10.0
 49
1.0
 49
-2.0
 49
3.0
 49
-4.0
  0
LTYPE
  2
RAND2
 70
    64
  3
ランダム線2
 72
    65
 73
     4
 40
14.0
 49
2.0
 49
-3.0
 49
4.0
 49
-5.0
  0
LTYPE
  2
RAND3
 70
    64
  3
ランダム線3
 72
    65
 73
     4
 40
18.0
 49
3.0
 49
-4.0
 49
5.0
 49
-6.0
  0
LTYPE
  2
RAND4
 70
    64
  3
ランダム線4
 72
    65
 73
     4
 40
22.0
 49
4.0
 49
-5.0
 49
6.0
 49
-7.0
  0
LTYPE
  2
RAND5
 70
    64
  3
ランダム線5
 72
    65
 73
     4
 40
26.0
 49
5.0
 49
-6.0
 49
7.0
 49
-8.0
  0
LTYPE
  2
LONG1
 70
    64
  3
----------  --  ----------  --  
 72
    65
 73
     4
 40
40.0
 49
32.5
 49
-2.5
 49
2.5
 49
-2.5
  0
LTYPE
  2
LONG2
 70
    64
  3
--------  -  -  --------  -  -  
 72
    65
 73
     6
 40
40.0
 49
30.0
 49
-2.5
 49
1.25
 49
-2.5
 49
1.25
 49
-2.5
  0
LTYPE
  2
LONG3
 70
    64
  3
+++++++++++++++..+++++++++++++++
 72
    65
 73
     2
 40
40.0
 49
37.5
 49
-2.5
  0
LTYPE
  2
LONG4
 70
    64
  3
+++++++++++++++..+++++++++++++++
 72
    65
 73
     2
 40
80.0
 49
75.0
 49
-5.0
  0
LTYPE
  2
LONG5
 70
    64
  3
----------  --  ----------  --  
 72
    65
 73
     4
 40
60.0
 49
37.5
 49
-7.5
 49
7.5
 49
-7.5
  0
LTYPE
  2
dashed
 70
   64
  3
-------   -------------   ------
 72
   65
 73
    2
 40
7.5
 49
6
 49
-1.5
  0
LTYPE
  2
dashed_spaced
 70
   64
  3
----        --------        ----
 72
   65
 73
    2
 40
12
 49
6
 49
-6
  0
LTYPE
  2
long_dashed_dotted
 70
   64
  3
------------- --- --------------
 72
   65
 73
    4
 40
15.25
 49
12
 49
-1.5
 49
0.25
 49
-1.5
  0
LTYPE
  2
long_dashed_double-dotted
 70
   64
  3
----------- --- --- ------------
 72
   65
 73
    6
 40
17
 49
12
 49
-1.5
 49
0.25
 49
-1.5
 49
0.25
 49
-1.5
  0
LTYPE
  2
long_dashed_triplicate-dotted
 70
   64
  3
--------- --- --- --- ----------
 72
   65
 73
    8
 40
18.75
 49
12
 49
-1.5
 49
0.25
 49
-1.5
 49
0.25
 49
-1.5
 49
0.25
 49
-1.5
  0
LTYPE
  2
dotted
 70
   64
  3
   -       -       -       -    
 72
   65
 73
    2
 40
1.75
 49
0.25
 49
-1.5
  0
LTYPE
  2
chain
 70
   64
  3
-------------- -- --------------
 72
   65
 73
    4
 40
18.5
 49
12
 49
-1.5
 49
3.5
 49
-1.5
  0
LTYPE
  2
chain_double_dash
 70
   64
  3
------------ -- -- -------------
 72
   65
 73
    6
 40
23.5
 49
12
 49
-1.5
 49
3.5
 49
-1.5
 49
3.5
 49
-1.5
  0
LTYPE
  2
dashed_dotted
 70
   64
  3
-----------     -     ----------
 72
   65
 73
    4
 40
9.25
 49
6
 49
-1.5
 49
0.25
 49
-1.5
  0
LTYPE
  2
double-dashed_dotted
 70
   64
  3
------   -----------   -   -----
 72
   65
 73
    6
 40
16.75
 49
6
 49
-1.5
 49
6
 49
-1.5
 49
0.25
 49
-1.5
  0
LTYPE
  2
dashed_double-dotted
 70
   64
  3
---------    -    -    ---------
 72
   65
 73
    6
 40
11
 49
6
 49
-1.5
 49
0.25
 49
-1.5
 49
0.25
 49
-1.5
  0
LTYPE
  2
double-dashed_double-dotted
 70
   64
  3
-----   ---------   -   -   ----
 72
   65
 73
    8
 40
18.5
 49
6
 49
-1.5
 49
6
 49
-1.5
 49
0.25
 49
-1.5
 49
0.25
 49
-1.5
  0
LTYPE
  2
dashed_triplicate-dotted
 70
   64
  3
-------    -    -    -    ------
 72
   65
 73
    8
 40
12.75
 49
6
 49
-1.5
 49
0.25
 49
-1.5
 49
0.25
 49
-1.5
 49
0.25
 49
-1.5
  0
LTYPE
  2
double-dashed_triplicate-dotted
 70
   64
  3
-----  ---------  -  -  -  -----
 72
   65
 73
   10
 40
20.25
 49
6
 49
-1.5
 49
6
 49
-1.5
 49
0.25
 49
-1.5
 49
0.25
 49
-1.5
 49
0.25
 49
-1.5
  0
LTYPE
  2
undefined
 70
   64
  3
--------------------------------
 72
   65
 73
    0
 40
0
  0
LTYPE
  2
_
 70
   64
  3
                                
 72
   65
 73
    0
 40
0
  0
LTYPE
  2
__18
 70
   64
  3
                                
 72
   65
 73
    0
 40
0
  0
LTYPE
  2
__19
 70
   64
  3
                                
 72
   65
 73
    0
 40
0
  0
LTYPE
  2
__20
 70
   64
  3
                                
 72
   65
 73
    0
 40
0
  0
LTYPE
  2
__21
 70
   64
  3
                                
 72
   65
 73
    0
 40
0
  0
LTYPE
  2
__22
 70
   64
  3
                                
 72
   65
 73
    0
 40
0
  0
LTYPE
  2
__23
 70
   64
  3
                                
 72
   65
 73
    0
 40
0
  0
LTYPE
  2
__24
 70
   64
  3
                                
 72
   65
 73
    0
 40
0
  0
LTYPE
  2
__25
 70
   64
  3
                                
 72
   65
 73
    0
 40
0
  0
LTYPE
  2
__26
 70
   64
  3
                                
 72
   65
 73
    0
 40
0
  0
LTYPE
  2
__27
 70
   64
  3
                                
 72
   65
 73
    0
 40
0
  0
LTYPE
  2
__28
 70
   64
  3
                                
 72
   65
 73
    0
 40
0
  0
LTYPE
  2
__29
 70
   64
  3
                                
 72
   65
 73
    0
 40
0
  0
LTYPE
  2
__30
 70
   64
  3
                                
 72
   65
 73
    0
 40
0
  0
LTYPE
  2
__31
 70
   64
  3
                                
 72
   65
 73
    0
 40
0
  0
LTYPE
  2
__32
 70
   64
  3
                                
 72
   65
 73
    0
 40
0
  0
ENDTAB
  0
TABLE
  2
STYLE
  5
3
100
AcDbSymbolTable
 70
     1
  0
STYLE
  5
10
100
AcDbSymbolTableRecord
100
AcDbTextStyleTableRecord
  2
STANDARD
 70
     0
 40
0.0
 41
1.0
 50
0.0
 71
     0
 42
0.2
  3
txt
  4
bigfont.shx
  0
STYLE
  5
26
100
AcDbSymbolTableRecord
100
AcDbTextStyleTableRecord
  2
TATEGAKI
 70
    68
 40
0.0
 41
1.0
 50
0.0
 71
     0
 42
1.0
  3
txt
  4
bigfont.shx
  0
ENDTAB
  0
TABLE
  2
LAYER
 70
    6
  0
LAYER
  2
_0-0_OUTLINE
 70
   64
 62
    7
  6
CONTINUOUS
  0
LAYER
  2
_0-1_EDGE
 70
   64
 62
    7
  6
CONTINUOUS
  0
LAYER
  2
_0-2_EXIST
 70
   64
 62
    7
  6
CONTINUOUS
  0
LAYER
  2
_0-4_TEXT
 70
   64
 62
    7
  6
CONTINUOUS
  0
LAYER
  2
_0-5_SYMBOL
 70
   64
 62
    7
  6
CONTINUOUS
  0
LAYER
  2
ADD_LINE
 70
   64
 62
    7
  6
CONTINUOUS
  0
ENDTAB
  0
ENDSEC
  0
SECTION
  2
BLOCKS
  0
ENDSEC
  0
SECTION
  2
ENTITIES
  0
LINE
  8
_0-1_EDGE
  6
CONTINUOUS
 62
    8
 10
420.5
 20
297
 11
13620.5
 21
297
  0
LINE
  8
_0-0_OUTLINE
  6
CONTINUOUS
 62
   18
 10
420.5
 20
5377
 11
13620.5
 21
5377
  0
LINE
  8
_0-0_OUTLINE
  6
CONTINUOUS
 62
   18
 10
13620.5
 20
5377
 11
13620.5
 21
3877
  0
LINE
  8
_0-0_OUTLINE
  6
CONTINUOUS
 62
   18
 10
13620.5
 20
3877
 11
420.5
 21
3877
  0
LINE
  8
_0-0_OUTLINE
  6
CONTINUOUS
 62
   18
 10
420.5
 20
3877
 11
420.5
 21
5377
  0
LINE
  8
_0-0_OUTLINE
  6
CONTINUOUS
 62
   18
 10
420.5
 20
3697
 11
13620.5
 21
3697
  0
LINE
  8
_0-0_OUTLINE
  6
CONTINUOUS
 62
   18
 10
13620.5
 20
3697
 11
13620.5
 21
3197
  0
LINE
  8
_0-0_OUTLINE
  6
CONTINUOUS
 62
   18
 10
13620.5
 20
3197
 11
420.5
 21
3197
  0
LINE
  8
_0-0_OUTLINE
  6
CONTINUOUS
 62
   18
 10
420.5
 20
3197
 11
420.5
 21
3697
  0
LINE
  8
_0-0_OUTLINE
  6
CONTINUOUS
 62
   18
 10
420.5
 20
5727
 11
13620.5
 21
5727
  0
LINE
  8
_0-0_OUTLINE
  6
CONTINUOUS
 62
   18
 10
13620.5
 20
5727
 11
13620.5
 21
5377
  0
LINE
  8
_0-0_OUTLINE
  6
CONTINUOUS
 62
   18
 10
13620.5
 20
5377
 11
420.5
 21
5377
  0
LINE
  8
_0-0_OUTLINE
  6
CONTINUOUS
 62
   18
 10
420.5
 20
5377
 11
420.5
 21
5727
  0
LINE
  8
_0-0_OUTLINE
  6
CONTINUOUS
 62
   18
 10
420.5
 20
3877
 11
13620.5
 21
3877
  0
LINE
  8
_0-0_OUTLINE
  6
CONTINUOUS
 62
   18
 10
13620.5
 20
3877
 11
13620.5
 21
3697
  0
LINE
  8
_0-0_OUTLINE
  6
CONTINUOUS
 62
   18
 10
13620.5
 20
3697
 11
420.5
 21
3697
  0
LINE
  8
_0-0_OUTLINE
  6
CONTINUOUS
 62
   18
 10
420.5
 20
3697
 11
420.5
 21
3877
  0
LINE
  8
_0-0_OUTLINE
  6
CONTINUOUS
 62
   18
 10
4620.5
 20
-1703
 11
13620.5
 21
-1703
  0
LINE
  8
_0-0_OUTLINE
  6
CONTINUOUS
 62
   18
 10
13620.5
 20
-1703
 11
13620.5
 21
-1853
  0
LINE
  8
_0-0_OUTLINE
  6
CONTINUOUS
 62
   18
 10
13620.5
 20
-1853
 11
4620.5
 21
-1853
  0
LINE
  8
_0-0_OUTLINE
  6
CONTINUOUS
 62
   18
 10
4620.5
 20
-1853
 11
4620.5
 21
-1703
  0
LINE
  8
_0-0_OUTLINE
  6
CONTINUOUS
 62
   18
 10
13020.5
 20
3697
 11
13620.5
 21
3697
  0
LINE
  8
_0-0_OUTLINE
  6
CONTINUOUS
 62
   18
 10
13620.5
 20
3697
 11
13620.5
 21
3197
  0
LINE
  8
_0-0_OUTLINE
  6
CONTINUOUS
 62
   18
 10
13620.5
 20
3197
 11
13020.5
 21
3197
  0
LINE
  8
_0-0_OUTLINE
  6
CONTINUOUS
 62
   18
 10
13020.5
 20
3197
 11
13020.5
 21
3697
  0
LINE
  8
_0-0_OUTLINE
  6
CONTINUOUS
 62
   18
 10
420.5
 20
-1853
 11
3420.5
 21
-1853
  0
LINE
  8
_0-0_OUTLINE
  6
CONTINUOUS
 62
   18
 10
3420.5
 20
-1853
 11
4620.5
 21
-1703
  0
LINE
  8
_0-0_OUTLINE
  6
CONTINUOUS
 62
   18
 10
4620.5
 20
-1703
 11
4620.5
 21
-1853
  0
LINE
  8
_0-0_OUTLINE
  6
CONTINUOUS
 62
   18
 10
4620.5
 20
-1853
 11
3420.5
 21
-1853
  0
LINE
  8
_0-2_EXIST
  6
CONTINUOUS
 62
    9
 10
1020.5
 20
3697
 11
1020.5
 21
3877
  0
LINE
  8
_0-2_EXIST
  6
CONTINUOUS
 62
    9
 10
1620.5
 20
3697
 11
1620.5
 21
3877
  0
LINE
  8
_0-2_EXIST
  6
CONTINUOUS
 62
    9
 10
2220.5
 20
3697
 11
2220.5
 21
3877
  0
LINE
  8
_0-2_EXIST
  6
CONTINUOUS
 62
    9
 10
2820.5
 20
3697
 11
2820.5
 21
3877
  0
LINE
  8
_0-2_EXIST
  6
CONTINUOUS
 62
    9
 10
3420.5
 20
3697
 11
3420.5
 21
3877
  0
LINE
  8
_0-2_EXIST
  6
CONTINUOUS
 62
    9
 10
4020.5
 20
3697
 11
4020.5
 21
3877
  0
LINE
  8
_0-2_EXIST
  6
CONTINUOUS
 62
    9
 10
4620.5
 20
3697
 11
4620.5
 21
3877
  0
LINE
  8
_0-2_EXIST
  6
CONTINUOUS
 62
    9
 10
5220.5
 20
3697
 11
5220.5
 21
3877
  0
LINE
  8
_0-2_EXIST
  6
CONTINUOUS
 62
    9
 10
5820.5
 20
3697
 11
5820.5
 21
3877
  0
LINE
  8
_0-2_EXIST
  6
CONTINUOUS
 62
    9
 10
6420.5
 20
3697
 11
6420.5
 21
3877
  0
LINE
  8
_0-2_EXIST
  6
CONTINUOUS
 62
    9
 10
7020.5
 20
3697
 11
7020.5
 21
3877
  0
LINE
  8
_0-2_EXIST
  6
CONTINUOUS
 62
    9
 10
7620.5
 20
3697
 11
7620.5
 21
3877
  0
LINE
  8
_0-2_EXIST
  6
CONTINUOUS
 62
    9
 10
8220.5
 20
3697
 11
8220.5
 21
3877
  0
LINE
  8
_0-2_EXIST
  6
CONTINUOUS
 62
    9
 10
8820.5
 20
3697
 11
8820.5
 21
3877
  0
LINE
  8
_0-2_EXIST
  6
CONTINUOUS
 62
    9
 10
9420.5
 20
3697
 11
9420.5
 21
3877
  0
LINE
  8
_0-2_EXIST
  6
CONTINUOUS
 62
    9
 10
10020.5
 20
3697
 11
10020.5
 21
3877
  0
LINE
  8
_0-2_EXIST
  6
CONTINUOUS
 62
    9
 10
10620.5
 20
3697
 11
10620.5
 21
3877
  0
LINE
  8
_0-2_EXIST
  6
CONTINUOUS
 62
    9
 10
11220.5
 20
3697
 11
11220.5
 21
3877
  0
LINE
  8
_0-2_EXIST
  6
CONTINUOUS
 62
    9
 10
11820.5
 20
3697
 11
11820.5
 21
3877
  0
LINE
  8
_0-2_EXIST
  6
CONTINUOUS
 62
    9
 10
12420.5
 20
3697
 11
12420.5
 21
3877
  0
LINE
  8
_0-2_EXIST
  6
CONTINUOUS
 62
    9
 10
13020.5
 20
3697
 11
13020.5
 21
3877
  0
LINE
  8
_0-2_EXIST
  6
CONTINUOUS
 62
    9
 10
5220.5
 20
-1853
 11
5220.5
 21
-1703
  0
LINE
  8
_0-2_EXIST
  6
CONTINUOUS
 62
    9
 10
5820.5
 20
-1853
 11
5820.5
 21
-1703
  0
LINE
  8
_0-2_EXIST
  6
CONTINUOUS
 62
    9
 10
6420.5
 20
-1853
 11
6420.5
 21
-1703
  0
LINE
  8
_0-2_EXIST
  6
CONTINUOUS
 62
    9
 10
7020.5
 20
-1853
 11
7020.5
 21
-1703
  0
LINE
  8
_0-2_EXIST
  6
CONTINUOUS
 62
    9
 10
7620.5
 20
-1853
 11
7620.5
 21
-1703
  0
LINE
  8
_0-2_EXIST
  6
CONTINUOUS
 62
    9
 10
8220.5
 20
-1853
 11
8220.5
 21
-1703
  0
LINE
  8
_0-2_EXIST
  6
CONTINUOUS
 62
    9
 10
8820.5
 20
-1853
 11
8820.5
 21
-1703
  0
LINE
  8
_0-2_EXIST
  6
CONTINUOUS
 62
    9
 10
9420.5
 20
-1853
 11
9420.5
 21
-1703
  0
LINE
  8
_0-2_EXIST
  6
CONTINUOUS
 62
    9
 10
10020.5
 20
-1853
 11
10020.5
 21
-1703
  0
LINE
  8
_0-2_EXIST
  6
CONTINUOUS
 62
    9
 10
10620.5
 20
-1853
 11
10620.5
 21
-1703
  0
LINE
  8
_0-2_EXIST
  6
CONTINUOUS
 62
    9
 10
11220.5
 20
-1853
 11
11220.5
 21
-1703
  0
LINE
  8
_0-2_EXIST
  6
CONTINUOUS
 62
    9
 10
11820.5
 20
-1853
 11
11820.5
 21
-1703
  0
LINE
  8
_0-2_EXIST
  6
CONTINUOUS
 62
    9
 10
12420.5
 20
-1853
 11
12420.5
 21
-1703
  0
LINE
  8
_0-2_EXIST
  6
CONTINUOUS
 62
    9
 10
13020.5
 20
-1853
 11
13020.5
 21
-1703
  0
TEXT
  8
_0-4_TEXT
 62
   18
 10
420.5
 20
47
 40
200
 41
1
 50
0
  1
A
  0
TEXT
  8
_0-4_TEXT
 62
   18
 10
13620.5
 20
47
 40
200
 41
1
 50
0
  1
B
  0
TEXT
  8
_0-4_TEXT
 62
   18
 10
420.5
 20
-203
 40
140
 41
1
 50
0
  1
センターラインA
  0
TEXT
  8
_0-4_TEXT
 62
   18
 10
13620.5
 20
-203
 40
140
 41
1
 50
0
  1
センターラインB
  0
TEXT
  8
_0-4_TEXT
 62
   18
 10
7020.5
 20
6797
 40
260
 41
1
 50
0
  1
現状図
  0
TEXT
  8
_0-4_TEXT
 62
   18
 10
1820.5
 20
547
 40
150
 41
1
 50
0
  1
Y=0 基準線(A-B)
  0
TEXT
  8
_0-4_TEXT
 62
   18
 10
1820.5
 20
897
 40
150
 41
1
 50
0
  1
+Y=歩道側
  0
TEXT
  8
_0-4_TEXT
 62
   18
 10
7020.5
 20
4627
 40
130
 41
1
 50
0
  1
R1 アスファルト 19.80m2
  0
TEXT
  8
_0-4_TEXT
 62
   18
 10
7020.5
 20
3447
 40
130
 41
1
 50
0
  1
R2 街渠版 6.60m2
  0
TEXT
  8
_0-4_TEXT
 62
   18
 10
7020.5
 20
5552
 40
130
 41
1
 50
0
  1
R3 L型 4.62m2
  0
TEXT
  8
_0-4_TEXT
 62
   18
 10
7020.5
 20
3787
 40
130
 41
1
 50
0
  1
R4 縁石 2.38m2
  0
TEXT
  8
_0-4_TEXT
 62
   18
 10
9120.5
 20
-1778
 40
130
 41
1
 50
0
  1
R7 縁石 1.35m2
  0
TEXT
  8
_0-4_TEXT
 62
   18
 10
13320.5
 20
3447
 40
130
 41
1
 50
0
  1
R8 集水桝 0.30m2
  0
TEXT
  8
_0-4_TEXT
 62
   18
 10
1920.5
 20
-1713
 40
120
 41
1
 50
0
  1
R5 縁石 0.00m2
  0
TEXT
  8
_0-4_TEXT
 62
   18
 10
4220.5
 20
-1983
 40
120
 41
1
 50
0
  1
R6 縁石 0.09m2
  0
LINE
  8
_0-5_SYMBOL
  6
CONTINUOUS
 62
   92
 10
12120.5
 20
6397
 11
12820.5
 21
6397
  0
LINE
  8
_0-5_SYMBOL
  6
CONTINUOUS
 62
   92
 10
12820.5
 20
6397
 11
12690.5
 21
6477
  0
LINE
  8
_0-5_SYMBOL
  6
CONTINUOUS
 62
   92
 10
12820.5
 20
6397
 11
12690.5
 21
6317
  0
TEXT
  8
_0-5_SYMBOL
 62
   18
 10
12010.5
 20
6447
 40
150
 41
1
 50
0
  1
N
  0
LINE
  8
_0-0_OUTLINE
  6
CONTINUOUS
 62
   18
 10
7620.05347891367
 20
3876.5758037305299
 11
7120.05347891367
 21
3876.5758037305299
  0
LINE
  8
_0-0_OUTLINE
  6
CONTINUOUS
 62
   18
 10
7614.7250734226454
 20
3873.0235334031804
 11
7025.0481990826237
 21
3697.1861521993791
  0
LINE
  8
_0-0_OUTLINE
  6
CONTINUOUS
 62
   18
 10
7619.83146201821
 20
3698.5182535721351
 11
8216.6128770129289
 21
3871.691432030424
  0
ENDSEC
  0
EOF
